<svg id="Capa_1" enable-background="new 0 0 512.009 512.009" height="512" viewBox="0 0 512.009 512.009" width="512" xmlns="http://www.w3.org/2000/svg"><g><g><path d="m279.802 168.012c7.326-.059 12.212 6.662 9.757 12.999-6.521 16.838-13.741 33.464-20.78 50.094-.426 1.007-.121 1.427.713 1.908 13.181 7.609 26.332 15.269 39.525 22.856 6.5 3.738 7.535 11.343 2.111 16.488-23.896 22.668-47.83 45.297-71.755 67.935-4.013 3.797-7.964 4.658-12.078 2.667-4.481-2.169-6.68-7.269-4.851-11.996 2.496-6.451 5.231-12.81 7.887-19.198 4.285-10.305 8.572-20.61 12.914-30.891.443-1.049.072-1.422-.736-1.887-13.345-7.674-26.822-15.194-39.999-23.15-6.135-3.704-6.86-11.255-1.63-16.21 23.911-22.655 47.891-45.238 71.755-67.943 2.201-2.094 4.616-3.589 7.167-3.672z" fill="#fedf30"/><path d="m309.017 255.869c-13.193-7.587-26.344-15.247-39.525-22.856-.834-.481-1.139-.901-.713-1.908 7.039-16.63 14.259-33.256 20.78-50.094 2.454-6.336-2.431-13.058-9.758-12.999-2.55.083-4.965 1.578-7.166 3.672-4.99 4.747-9.998 9.475-14.996 14.214-1.764 5.912-12.004 29.362-16.276 40.907-1.284 3.471.117 7.354 3.321 9.207 11.444 6.62 22.873 13.265 34.334 19.856 6.5 3.737 7.534 11.343 2.111 16.488-18.903 17.932-37.83 35.838-56.757 53.744-.654 1.616-1.299 3.235-1.928 4.861-1.829 4.727.37 9.826 4.851 11.996 4.114 1.992 8.065 1.131 12.078-2.667 23.925-22.638 47.859-45.267 71.755-67.935 5.424-5.143 4.389-12.749-2.111-16.486z" fill="#fac600"/><g><path d="m150.678 106.34c-66.686 10.205-117.949 60.381-132.266 122.975-1.223 5.346-8.98 5.014-9.658-.428-.012-.096-.024-.191-.036-.287-10.626-86.55 49.678-165.46 135.352-178.417 2.518-.381 4.273-2.696 3.963-5.223l-3.948-32.157c-.512-4.166 4.269-6.871 7.577-4.287l72.713 56.81c2.05 1.602 2.414 4.563.812 6.613l-56.81 72.713c-2.584 3.307-7.877 1.84-8.389-2.327l-3.916-31.896c-.324-2.636-2.767-4.49-5.394-4.089z" fill="#22b37f"/><g fill="#09a76d"><path d="m79.091 118.606c-34.672 17.165-57.182 43.421-68.409 58.493-3.346 16.52-4.131 33.851-1.964 51.5.012.096.024.191.036.287.678 5.442 8.436 5.775 9.658.429 14.316-62.594 65.58-112.771 132.266-122.975.532-.082 1.051-.048 1.552.043.005-.005.01-.01.015-.015-24.355-7.552-59.028 3.755-73.154 12.238z"/><path d="m224.375 65.326-72.713-56.81c-3.308-2.584-8.088.121-7.577 4.287l1.797 14.637 48.493 37.887c2.05 1.602 2.414 4.563.812 6.613l-37.887 48.492 2.688 21.894c.511 4.166 5.805 5.634 8.389 2.327l56.81-72.713c1.602-2.051 1.238-5.012-.812-6.614z"/></g><path d="m405.669 150.678c-10.204-66.686-60.38-117.949-122.974-132.266-5.346-1.223-5.014-8.98.428-9.658.096-.012.191-.024.287-.036 86.549-10.627 165.46 49.678 178.416 135.351.381 2.518 2.696 4.273 5.223 3.963l32.157-3.948c4.166-.512 6.871 4.269 4.287 7.577l-56.81 72.713c-1.602 2.05-4.563 2.414-6.613.812l-72.713-56.81c-3.307-2.584-1.84-7.877 2.327-8.389l31.896-3.916c2.636-.323 4.491-2.766 4.089-5.393z" fill="#22b37f"/><g><path d="m499.206 144.085-32.157 3.948c-2.527.31-4.842-1.446-5.223-3.963-12.957-85.674-91.867-145.978-178.416-135.352-1.057.129-2.114.259-3.171 1.046-4.448 3.312-3.331 7.339 2.078 8.562 8.6 1.945 16.964 4.593 25.026 7.876 59.715 13.07 108.393 59.703 122.324 121.398 2.031 8.994 10.438 15.058 19.59 13.934l12.288-1.509c6.993-.859 11.533 7.166 7.195 12.718l-36.311 46.475 7.639 5.968c2.05 1.602 5.011 1.238 6.613-.812l56.81-72.713c2.586-3.307-.119-8.088-4.285-7.576z" fill="#09a76d"/></g><path d="m361.331 405.669c66.686-10.204 117.949-60.38 132.266-122.974 1.223-5.346 8.98-5.014 9.658.428.012.096.024.191.035.287 10.627 86.549-49.678 165.46-135.351 178.416-2.518.381-4.273 2.696-3.963 5.223l3.948 32.157c.512 4.166-4.269 6.871-7.577 4.287l-72.713-56.81c-2.05-1.602-2.414-4.563-.812-6.613l56.81-72.713c2.584-3.307 7.877-1.84 8.389 2.327l3.916 31.896c.325 2.636 2.767 4.491 5.394 4.089z" fill="#22b37f"/><g><path d="m367.939 461.826c85.674-12.957 145.978-91.867 135.351-178.417-.012-.096-.024-.191-.036-.287-.679-5.46-8.426-5.823-9.651-.459-5.249 22.971-15.479 44.267-29.616 62.533-18.795 49.206-61.283 87.651-115.179 99.606-8.662 1.921-14.489 10.044-13.408 18.851l2.524 20.554c.074.599.027 1.163-.098 1.691l22.521 17.596c3.308 2.584 8.088-.121 7.577-4.287l-3.948-32.157c-.31-2.528 1.446-4.843 3.963-5.224z" fill="#09a76d"/></g><path d="m106.34 361.331c10.204 66.686 60.381 117.949 122.975 132.266 5.346 1.223 5.014 8.98-.428 9.658-.096.012-.191.024-.287.035-86.55 10.627-165.46-49.677-178.417-135.351-.381-2.518-2.696-4.273-5.223-3.963l-32.157 3.948c-4.166.512-6.871-4.269-4.287-7.577l56.81-72.713c1.602-2.05 4.563-2.414 6.613-.812l72.713 56.81c3.307 2.584 1.84 7.877-2.327 8.389l-31.896 3.916c-2.636.325-4.49 2.767-4.089 5.394z" fill="#22b37f"/><path d="m229.69 493.682c-62.768-14.197-113.123-65.53-123.349-132.348-.402-2.628 1.451-5.072 4.09-5.396l31.896-3.916c4.166-.512 5.634-5.805 2.327-8.389l-72.713-56.81c-2.05-1.602-5.011-1.238-6.613.812l-12.218 15.635 34.452 26.917c6.354 4.964 3.534 15.132-4.469 16.115l-3.544.435c-12.899 1.584-21.413 14.28-17.903 26.793 16.046 57.211 62.392 100.162 118.834 113.071 5.346 1.223 5.014 8.98-.428 9.658-.096.012-.191.023-.287.035-5.971.733-11.904 1.117-17.784 1.189 20.921 6.418 43.497 8.646 66.62 5.807 1.057-.129 2.114-.259 3.171-1.046 4.449-3.314 3.33-7.338-2.082-8.562z" fill="#09a76d"/></g></g><g><g><path d="m223.298 351.215c-8.896-4.307-12.94-14.437-9.409-23.563 5.854-15.129 11.806-28.65 18.249-44.036-11.42-6.525-22.937-13.025-34.368-19.926-5.364-3.238-8.807-8.494-9.448-14.421-.646-5.984 1.632-11.926 6.25-16.301 23.924-22.665 47.708-45.064 71.741-67.929 9.285-8.835 22.968-7.723 29.775 2.127 3.48 5.036 4.237 11.45 2.026 17.158-5.761 14.874-12.084 29.667-18.23 44.099 11.235 6.5 22.455 13.023 33.708 19.494 5.68 3.266 9.353 8.619 10.076 14.686.715 5.999-1.554 11.979-6.224 16.41-23.745 22.526-47.957 45.417-71.763 67.943-7.459 7.056-15.054 7.808-22.383 4.259zm57.039-173.987c-2.187 1.382-47.667 44.916-73.147 69.058-.876.83-.912 1.11.062 1.697 13.172 7.946 26.573 15.425 39.831 23.051 5.711 3.285 6.433 9.1 4.615 13.406-7.189 17.033-14.233 33.12-20.698 49.833-.113.292.329.452.507.521 2.424-1.187 47.984-45.068 73.309-69.092 1.028-.975.954-1.119-.371-1.88-13.199-7.59-26.353-15.252-39.539-22.864-4.929-2.845-6.768-8.24-4.577-13.425 6.933-16.402 14.187-33.098 20.675-49.835-.002-.104-.182-.367-.667-.47zm-42.402 109.711h.01z"/></g><g><g><path d="m12.965 240.636c-6.106-.309-10.898-4.758-11.653-10.822-7.524-60.439 18.345-120.458 67.518-156.499 3.34-2.448 8.033-1.728 10.483 1.612s1.728 8.034-1.612 10.483c-40.778 29.907-63.979 77.892-62.621 127.808 8.685-26.787 23.951-50.935 44.68-70.492 24.88-23.473 55.927-38.619 89.784-43.799 3.245-.498 6.605.356 9.222 2.34 2.619 1.984 4.35 4.991 4.75 8.25l3.095 25.213 50.949-65.21-65.21-50.948 3.127 25.475c.812 6.604-3.706 12.558-10.285 13.553-15.101 2.284-29.683 6.767-43.341 13.325-3.734 1.791-8.215.219-10.008-3.515-1.792-3.734-.219-8.215 3.515-10.008 14.19-6.813 29.282-11.587 44.902-14.206l-3.619-29.479c-.604-4.919 1.792-9.675 6.107-12.116 4.314-2.44 9.626-2.045 13.531 1.005l72.713 56.81c2.57 2.008 4.205 4.897 4.602 8.134.397 3.238-.489 6.437-2.498 9.007l-56.81 72.713c-3.053 3.906-8.11 5.572-12.887 4.249-4.776-1.325-8.252-5.359-8.856-10.278l-3.564-29.026c-29.73 5.111-56.967 18.705-78.926 39.422-22.222 20.965-37.551 47.713-44.33 77.351-1.38 6.034-6.669 9.955-12.758 9.648z"/></g><g><path d="m442.946 233.687c-2.709 0-5.325-.896-7.494-2.591l-72.713-56.81c-3.906-3.053-5.573-8.111-4.249-12.887s5.359-8.252 10.278-8.856l29.026-3.564c-5.112-29.731-18.705-56.967-39.422-78.926-20.965-22.222-47.713-37.551-77.351-44.33-5.991-1.37-9.958-6.617-9.648-12.759.313-6.21 4.955-10.933 11.124-11.69 43.755-5.374 87.172 6.361 122.257 33.037 34.292 26.074 56.966 63.616 64.059 105.949l29.479-3.619c4.918-.603 9.675 1.792 12.116 6.107 2.441 4.314 2.046 9.625-1.005 13.531l-56.81 72.713c-2.008 2.57-4.897 4.205-8.134 4.602-.507.063-1.012.093-1.513.093zm-65.667-67.076 65.211 50.949 50.948-65.21-25.475 3.127c-6.6.814-12.558-3.706-13.553-10.285-5.981-39.552-26.841-74.689-58.735-98.94-28.091-21.358-62.055-32.195-96.922-31.184 26.803 8.683 50.962 23.953 70.529 44.692 23.473 24.88 38.619 55.927 43.799 89.784.497 3.244-.356 6.605-2.34 9.222-1.984 2.619-4.991 4.35-8.25 4.75zm20.976-14.801v.002z"/></g><g><path d="m363.243 511.999c-2.665 0-5.312-.876-7.513-2.596l-72.713-56.81c-2.57-2.008-4.205-4.897-4.602-8.134-.397-3.238.489-6.437 2.498-9.007l56.81-72.713c3.053-3.906 8.108-5.573 12.887-4.249 4.776 1.325 8.252 5.359 8.856 10.278l3.564 29.026c29.73-5.111 56.967-18.705 78.926-39.422 22.222-20.965 37.551-47.713 44.33-77.351 1.37-5.991 6.602-9.963 12.759-9.648 6.106.309 10.898 4.758 11.653 10.822 3.626 29.129-.422 58.785-11.713 85.705-10.912 26.015-28.343 49.067-50.41 66.667-3.239 2.582-7.957 2.051-10.54-1.188-2.583-3.238-2.051-7.957 1.188-10.54 20.106-16.035 35.988-37.039 45.929-60.741 8.382-19.984 12.382-41.62 11.781-63.315-8.684 26.791-23.95 50.939-44.682 70.499-24.88 23.473-55.927 38.619-89.784 43.799-3.244.497-6.605-.356-9.222-2.34-2.619-1.984-4.35-4.991-4.75-8.25l-3.095-25.213-50.949 65.211 65.21 50.948-3.127-25.475c-.812-6.604 3.706-12.558 10.285-13.553 17.439-2.638 34.1-8.178 49.52-16.467 3.65-1.961 8.196-.593 10.157 3.055s.594 8.196-3.055 10.157c-16.144 8.679-33.522 14.613-51.691 17.658l3.619 29.479c.604 4.919-1.792 9.675-6.107 12.116-1.883 1.067-3.956 1.592-6.019 1.592z"/></g><g><path d="m208.749 512.009c-36.557.001-71.972-11.865-101.494-34.311-34.292-26.074-56.966-63.616-64.059-105.949l-29.479 3.619c-4.915.608-9.675-1.792-12.116-6.107-2.441-4.314-2.046-9.625 1.005-13.531l56.81-72.713c2.008-2.57 4.897-4.205 8.134-4.602 3.243-.397 6.437.489 9.007 2.498l72.713 56.81c3.906 3.053 5.573 8.111 4.249 12.887s-5.359 8.252-10.278 8.856l-29.026 3.564c5.112 29.731 18.705 56.967 39.422 78.926 20.965 22.222 47.713 37.551 77.351 44.33 5.991 1.37 9.958 6.617 9.648 12.759-.313 6.209-4.953 10.933-11.124 11.69-6.939.852-13.875 1.274-20.763 1.274zm18.894-11.101h.01zm-182.065-144.47c5.972 0 11.104 4.313 12.021 10.379 5.981 39.552 26.841 74.689 58.735 98.94 28.091 21.358 62.05 32.194 96.922 31.184-26.803-8.683-50.962-23.953-70.529-44.692-23.473-24.88-38.619-55.927-43.799-89.784-.497-3.244.356-6.605 2.34-9.222 1.984-2.619 4.991-4.35 8.25-4.75l25.213-3.095-65.211-50.948-50.948 65.21 25.475-3.127c.514-.064 1.026-.095 1.531-.095z"/></g></g></g></g></svg>